<?xml version="1.0" encoding="UTF-8"?>
<svg enable-background="new 0 0 156.7 36" version="1.1" viewBox="0 0 156.7 36" xml:space="preserve" xmlns="http://www.w3.org/2000/svg">
<style type="text/css">
	.st0{fill:#E47735;}
	.st1{fill:#0073BB;}
</style>
		<path class="st0" d="m55 15.8v0.6c0 0.2 0 0.3-0.1 0.4 0 0.1-0.1 0.2-0.1 0.2-0.1 0-0.1 0.1-0.2 0.1h-7.1c-0.3 0-0.5-0.1-0.7-0.2-0.2-0.2-0.3-0.4-0.3-0.8v-13.9c0-0.1 0-0.1 0.1-0.2s0.1-0.1 0.3-0.2c0.1 0 0.3-0.1 0.5-0.1h0.8 0.8c0.2 0 0.4 0.1 0.5 0.1s0.2 0.1 0.3 0.2 0.1 0.1 0.1 0.2v12.3h4.9c0.1 0 0.2 0 0.2 0.1 0.1 0 0.1 0.1 0.1 0.2s0.1 0.2 0.1 0.4c-0.2 0.2-0.2 0.4-0.2 0.6z"/>
		<path class="st0" d="m59.9 2.5c0 0.6-0.1 1-0.4 1.2-0.2 0.2-0.7 0.3-1.4 0.3s-1.1-0.1-1.4-0.3c-0.2-0.2-0.4-0.6-0.4-1.2s0.1-1 0.4-1.3c0.4-0.1 0.8-0.2 1.5-0.2s1.1 0.1 1.4 0.3c0.2 0.2 0.3 0.6 0.3 1.2zm-0.2 14.2c0 0.1 0 0.1-0.1 0.2 0 0.1-0.1 0.1-0.2 0.1s-0.3 0.1-0.5 0.1h-0.7-0.7c-0.2 0-0.3-0.1-0.5-0.1-0.1 0-0.2-0.1-0.2-0.1 0-0.1-0.1-0.1-0.1-0.2v-10.6c0-0.1 0-0.1 0.1-0.2 0-0.1 0.1-0.1 0.2-0.2 0.1 0 0.3-0.1 0.5-0.1h0.7 0.7c0.2 0 0.3 0.1 0.5 0.1 0.1 0 0.2 0.1 0.2 0.2s0.1 0.1 0.1 0.2v10.6z"/>
		<path class="st0" d="m72.3 6.9c0 0.4 0 0.7-0.1 0.8-0.1 0.2-0.2 0.3-0.3 0.3h-1.3c0.2 0.2 0.3 0.4 0.4 0.6s0.1 0.5 0.1 0.8c0 0.6-0.1 1.2-0.3 1.6-0.2 0.5-0.5 0.9-0.9 1.2s-0.9 0.6-1.4 0.7c-0.5 0.2-1.2 0.3-1.8 0.3-0.3 0-0.7 0-1-0.1s-0.6-0.2-0.7-0.3c-0.1 0.1-0.2 0.2-0.3 0.4-0.1 0.1-0.1 0.3-0.1 0.5s0.1 0.4 0.3 0.6c0.2 0.1 0.5 0.2 0.9 0.2l2.6 0.1c0.6 0 1.1 0.1 1.6 0.3 0.5 0.1 0.9 0.4 1.2 0.6 0.3 0.3 0.6 0.6 0.7 1 0.2 0.4 0.3 0.8 0.3 1.3s-0.1 1-0.3 1.5-0.6 0.9-1 1.2c-0.5 0.3-1 0.6-1.7 0.8s-1.5 0.3-2.4 0.3-1.7-0.1-2.3-0.2-1.2-0.3-1.6-0.6-0.7-0.6-0.9-0.9c-0.2-0.4-0.3-0.7-0.3-1.2 0-0.3 0-0.5 0.1-0.7s0.2-0.5 0.3-0.7 0.3-0.4 0.5-0.6 0.4-0.4 0.7-0.6c-0.3-0.2-0.6-0.4-0.8-0.7s-0.3-0.7-0.3-1c0-0.5 0.1-0.9 0.3-1.3s0.5-0.7 0.8-1c-0.3-0.3-0.5-0.6-0.7-1s-0.3-0.9-0.3-1.4c0-0.6 0.1-1.2 0.3-1.6 0.2-0.5 0.5-0.9 0.9-1.2s0.9-0.6 1.4-0.8 1.1-0.3 1.8-0.3c0.3 0 0.7 0 1 0.1 0.3 0 0.6 0.1 0.9 0.2h3.4c0.1 0 0.2 0.1 0.3 0.3v0.5zm-3.1 10.9c0-0.4-0.1-0.6-0.4-0.8s-0.7-0.3-1.2-0.3l-2.1-0.1c-0.2 0.1-0.4 0.3-0.5 0.4s-0.2 0.3-0.3 0.4-0.1 0.2-0.1 0.4v0.4c0 0.4 0.2 0.7 0.6 0.9s1 0.3 1.7 0.3c0.5 0 0.8 0 1.1-0.1s0.6-0.2 0.8-0.4c0.2-0.1 0.3-0.3 0.4-0.5-0.1-0.2 0-0.4 0-0.6zm-0.7-8.4c0-0.6-0.2-1-0.5-1.3s-0.8-0.5-1.4-0.5c-0.3 0-0.6 0-0.8 0.1s-0.4 0.2-0.6 0.4c0 0.2-0.2 0.4-0.2 0.6-0.1 0.2-0.1 0.5-0.1 0.7 0 0.5 0.2 1 0.5 1.3s0.8 0.5 1.3 0.5c0.3 0 0.6 0 0.8-0.1s0.4-0.2 0.6-0.4c0.1-0.2 0.3-0.4 0.3-0.6 0-0.3 0.1-0.5 0.1-0.7z"/>
		<path class="st0" d="m84.5 16.7c0 0.1 0 0.1-0.1 0.2s-0.1 0.1-0.2 0.1-0.3 0.1-0.5 0.1h-0.7-0.7c-0.2 0-0.3-0.1-0.5-0.1-0.1 0-0.2-0.1-0.2-0.1 0-0.1-0.1-0.1-0.1-0.2v-6c0-0.5 0-0.9-0.1-1.2s-0.2-0.5-0.3-0.8c-0.1-0.2-0.3-0.4-0.6-0.5-0.2-0.1-0.5-0.2-0.8-0.2-0.4 0-0.8 0.1-1.2 0.4s-0.8 0.7-1.2 1.2v7c0 0.1 0 0.1-0.1 0.2 0 0.1-0.1 0.1-0.2 0.1s-0.3 0.1-0.5 0.1h-0.7-0.7c-0.2 0-0.3-0.1-0.5-0.1-0.1 0-0.2-0.1-0.2-0.1 0-0.1-0.1-0.1-0.1-0.2v-15.5c0-0.1 0-0.1 0.1-0.2 0-0.1 0.1-0.1 0.2-0.2 0.1 0 0.3-0.1 0.5-0.1h0.7 0.7c0.2 0 0.3 0.1 0.5 0.1 0.1 0 0.2 0.1 0.2 0.2s0.1 0.1 0.1 0.2v5.9c0.5-0.5 1-0.9 1.6-1.1 0.5-0.2 1.1-0.4 1.7-0.4 0.7 0 1.3 0.1 1.8 0.4 0.5 0.2 0.9 0.6 1.2 1s0.5 0.9 0.7 1.4c0.1 0.5 0.2 1.2 0.2 2v6.4z"/>
		<path class="st0" d="m93.8 15.7c0 0.3 0 0.6-0.1 0.8 0 0.2-0.1 0.3-0.2 0.4s-0.2 0.1-0.3 0.2-0.3 0.1-0.5 0.2c-0.2 0-0.4 0.1-0.6 0.1h-0.7c-0.6 0-1.1-0.1-1.6-0.2-0.4-0.1-0.8-0.4-1.1-0.7s-0.5-0.7-0.6-1.2-0.2-1-0.2-1.7v-5.5h-1.3c-0.2 0-0.3-0.1-0.3-0.3-0.1-0.2-0.1-0.5-0.1-0.9v-0.6c0-0.2 0.1-0.3 0.1-0.4s0.1-0.2 0.1-0.2c0.1 0 0.1-0.1 0.2-0.1h1.4v-2.2c0-0.1 0-0.1 0.1-0.2 0-0.1 0.1-0.1 0.2-0.2 0.1 0 0.3-0.1 0.5-0.1h0.7 0.7c0.2 0 0.3 0.1 0.5 0.1 0.1 0 0.2 0.1 0.2 0.2 0.1 0 0.1 0.1 0.1 0.2v2.3h2.3c0.1 0 0.1 0 0.2 0.1 0.1 0 0.1 0.1 0.1 0.2s0.1 0.2 0.1 0.4v0.6c0 0.4 0 0.7-0.1 0.9s-0.2 0.3-0.3 0.3h-2.3v5c0 0.6 0.1 1 0.3 1.3s0.5 0.4 1 0.4h0.4c0.1 0 0.2-0.1 0.3-0.1s0.2-0.1 0.3-0.1h0.2 0.1s0.1 0.1 0.1 0.2 0 0.2 0.1 0.3v0.5z"/>
		<path class="st1" d="m106.9 14.8v0.5c0 0.1 0 0.3-0.1 0.4 0 0.1-0.1 0.2-0.1 0.3s-0.1 0.2-0.2 0.2c-0.1 0.1-0.3 0.2-0.5 0.4-0.3 0.1-0.6 0.3-0.9 0.4l-1.2 0.3c-0.5 0.1-1 0.1-1.5 0.1-1.1 0-2-0.2-2.9-0.5s-1.6-0.8-2.2-1.4-1.1-1.4-1.4-2.4-0.5-2.1-0.5-3.4 0.2-2.5 0.5-3.5c0.4-1 0.8-1.9 1.5-2.5 0.6-0.7 1.4-1.2 2.3-1.6s1.9-0.5 2.9-0.5c0.4 0 0.8 0 1.2 0.1s0.8 0.2 1.1 0.3 0.6 0.2 0.9 0.4c0.3 0.1 0.5 0.3 0.6 0.4s0.2 0.2 0.2 0.3 0.1 0.2 0.1 0.3 0 0.2 0.1 0.4v0.6 0.6c0 0.2 0 0.3-0.1 0.4 0 0.1-0.1 0.2-0.1 0.2-0.1 0-0.1 0.1-0.2 0.1s-0.3-0.1-0.5-0.2-0.4-0.3-0.7-0.5-0.6-0.3-1-0.5c-0.4-0.1-0.9-0.2-1.4-0.2-0.6 0-1.2 0.1-1.6 0.4-0.5 0.2-0.9 0.6-1.2 1.1s-0.6 1-0.8 1.7-0.3 1.4-0.3 2.2c0 0.9 0.1 1.7 0.3 2.3 0.2 0.7 0.5 1.2 0.8 1.6s0.8 0.7 1.3 0.9 1 0.3 1.7 0.3c0.6 0 1-0.1 1.4-0.2s0.8-0.3 1-0.4c0.3-0.2 0.5-0.3 0.7-0.4s0.3-0.2 0.4-0.2h0.2s0.1 0.1 0.1 0.2 0.1 0.2 0.1 0.4v0.6z"/>
		<path class="st1" d="m118 16.7c0 0.1 0 0.2-0.1 0.3s-0.2 0.1-0.4 0.1h-0.8-0.8c-0.2 0-0.3-0.1-0.3-0.1-0.1-0.1-0.1-0.1-0.1-0.3v-0.8c-0.4 0.5-0.9 0.8-1.5 1.1s-1.2 0.4-1.9 0.4c-0.6 0-1.1-0.1-1.6-0.2s-0.9-0.4-1.2-0.7-0.6-0.6-0.8-1.1c-0.2-0.4-0.3-0.9-0.3-1.5s0.1-1.2 0.4-1.6c0.2-0.5 0.6-0.8 1.1-1.1s1.1-0.5 1.8-0.7c0.7-0.1 1.6-0.2 2.5-0.2h1v-0.6c0-0.3 0-0.6-0.1-0.9-0.1-0.2-0.2-0.5-0.3-0.6-0.2-0.2-0.4-0.3-0.6-0.4-0.3-0.1-0.6-0.1-1-0.1-0.5 0-1 0.1-1.4 0.2s-0.7 0.2-1 0.4c-0.3 0.1-0.6 0.3-0.8 0.4s-0.4 0.2-0.5 0.2-0.2 0-0.2-0.1l-0.2-0.2c0-0.1-0.1-0.2-0.1-0.4v-0.5c0-0.2 0-0.4 0.1-0.6 0-0.1 0.1-0.3 0.2-0.4s0.3-0.2 0.6-0.4c0.3-0.1 0.6-0.3 1-0.4l1.2-0.3c0.4-0.1 0.9-0.1 1.4-0.1 0.8 0 1.6 0.1 2.2 0.2 0.6 0.2 1.1 0.4 1.5 0.7s0.7 0.8 0.8 1.3c0.2 0.5 0.3 1.2 0.3 1.9v7.1zm-2.9-4.5h-1.2c-0.5 0-0.9 0-1.2 0.1s-0.6 0.2-0.8 0.3-0.4 0.3-0.5 0.5-0.1 0.4-0.1 0.7c0 0.4 0.1 0.8 0.4 1 0.3 0.3 0.7 0.4 1.2 0.4 0.4 0 0.8-0.1 1.2-0.3s0.7-0.5 1.1-0.9v-1.8z"/>
		<path class="st1" d="m128.5 13.7c0 0.6-0.1 1.1-0.3 1.6s-0.5 0.8-1 1.1c-0.4 0.3-0.9 0.5-1.5 0.7s-1.2 0.2-1.8 0.2c-0.4 0-0.8 0-1.1-0.1-0.4-0.1-0.7-0.1-1-0.2s-0.5-0.2-0.7-0.3-0.3-0.2-0.4-0.3-0.2-0.2-0.2-0.4-0.1-0.4-0.1-0.8v-0.5c0-0.1 0-0.3 0.1-0.3 0-0.1 0.1-0.1 0.1-0.2h0.2c0.1 0 0.2 0 0.4 0.1l0.6 0.3c0.3 0.1 0.6 0.2 0.9 0.3s0.7 0.2 1.2 0.2c0.3 0 0.5 0 0.7-0.1s0.4-0.1 0.6-0.2 0.3-0.2 0.4-0.4 0.1-0.3 0.1-0.5-0.1-0.4-0.2-0.6-0.3-0.3-0.6-0.4c-0.2-0.1-0.5-0.2-0.8-0.4-0.3-0.1-0.6-0.2-0.9-0.4-0.3-0.1-0.6-0.3-0.9-0.5s-0.6-0.4-0.8-0.6l-0.6-0.9c-0.1-0.4-0.2-0.8-0.2-1.3s0.1-1 0.3-1.4 0.5-0.8 0.9-1.1 0.8-0.5 1.4-0.7c0.5-0.2 1.1-0.2 1.8-0.2 0.3 0 0.7 0 1 0.1 0.3 0 0.6 0.1 0.9 0.2s0.5 0.1 0.6 0.2c0.2 0.1 0.3 0.2 0.4 0.2l0.2 0.2c0 0.1 0.1 0.1 0.1 0.2v0.3 0.5 0.5c0 0.1 0 0.2-0.1 0.3 0 0.1-0.1 0.1-0.1 0.2h-0.2c-0.1 0-0.2 0-0.3-0.1-0.2-0.1-0.3-0.2-0.6-0.3-0.2-0.1-0.5-0.2-0.8-0.3s-0.6-0.1-1-0.1c-0.3 0-0.5 0-0.7 0.1s-0.4 0.1-0.5 0.2-0.2 0.2-0.3 0.4c-0.1 0.1-0.1 0.3-0.1 0.4 0 0.2 0.1 0.5 0.2 0.6 0.2 0.2 0.3 0.3 0.6 0.4 0.2 0.1 0.5 0.2 0.8 0.4 0.3 0.1 0.6 0.2 1 0.4 0.3 0.1 0.6 0.3 1 0.5 0.3 0.2 0.6 0.4 0.8 0.6l0.6 0.9c-0.1 0.4-0.1 0.8-0.1 1.3z"/>
		<path class="st1" d="m137.1 15.7c0 0.3 0 0.6-0.1 0.8 0 0.2-0.1 0.3-0.2 0.4s-0.2 0.1-0.3 0.2-0.3 0.1-0.5 0.2c-0.2 0-0.4 0.1-0.6 0.1h-0.7c-0.6 0-1.1-0.1-1.6-0.2-0.4-0.1-0.8-0.4-1.1-0.7s-0.5-0.7-0.6-1.2-0.2-1-0.2-1.7v-5.5h-1.2c-0.2 0-0.3-0.1-0.3-0.3-0.1-0.2-0.1-0.5-0.1-0.9v-0.6c0-0.2 0.1-0.3 0.1-0.4s0.1-0.2 0.1-0.2c0.1 0 0.1-0.1 0.2-0.1h1.3v-2.2c0-0.1 0-0.1 0.1-0.2 0-0.1 0.1-0.1 0.2-0.2 0.1 0 0.3-0.1 0.5-0.1h0.7 0.7c0.2 0 0.3 0.1 0.5 0.1 0.1 0 0.2 0.1 0.2 0.2s0.1 0.1 0.1 0.2v2.3h2.3c0.1 0 0.1 0 0.2 0.1 0.1 0 0.1 0.1 0.1 0.2s0.1 0.2 0.1 0.4v0.6c0 0.4 0 0.7-0.1 0.9s-0.2 0.3-0.3 0.3h-2.3v5c0 0.6 0.1 1 0.3 1.3s0.5 0.4 1 0.4h0.4c0.1 0 0.2-0.1 0.3-0.1s0.2-0.1 0.3-0.1h0.2 0.1s0.1 0.1 0.1 0.2 0 0.2 0.1 0.3v0.5z"/>
		<path class="st1" d="m142.3 16.7c0 0.1 0 0.1-0.1 0.2 0 0.1-0.1 0.1-0.2 0.1s-0.3 0.1-0.5 0.1h-0.7-0.7c-0.2 0-0.3-0.1-0.5-0.1-0.1 0-0.2-0.1-0.2-0.1 0-0.1-0.1-0.1-0.1-0.2v-15.6c0-0.1 0-0.1 0.1-0.2 0-0.1 0.1-0.1 0.2-0.2 0.1 0 0.3-0.1 0.5-0.1h0.7 0.7c0.2 0 0.3 0.1 0.5 0.1 0.1 0 0.2 0.1 0.2 0.2 0.1 0.1 0.1 0.1 0.1 0.2v15.6z"/>
		<path class="st1" d="m155.1 11.1c0 0.4-0.1 0.6-0.2 0.8-0.2 0.2-0.4 0.3-0.7 0.3h-6.5c0 0.5 0.1 0.9 0.2 1.2 0.1 0.4 0.3 0.7 0.5 0.9 0.2 0.3 0.5 0.5 0.9 0.6s0.8 0.2 1.3 0.2 1 0 1.4-0.1 0.7-0.2 1-0.3 0.5-0.2 0.7-0.3 0.3-0.1 0.5-0.1h0.2l0.1 0.1c0 0.1 0.1 0.2 0.1 0.3v0.5 0.4 0.3c0 0.1 0 0.2-0.1 0.2 0 0.1-0.1 0.1-0.1 0.2-0.1 0.1-0.2 0.1-0.4 0.2s-0.5 0.2-0.9 0.3-0.8 0.2-1.2 0.2c-0.5 0.1-1 0.1-1.5 0.1-1 0-1.8-0.1-2.5-0.4-0.7-0.2-1.3-0.6-1.8-1.1s-0.8-1.1-1.1-1.8c-0.2-0.7-0.4-1.6-0.4-2.6 0-0.9 0.1-1.8 0.4-2.5 0.3-0.8 0.6-1.4 1.1-1.9s1-0.9 1.7-1.2 1.4-0.4 2.3-0.4 1.7 0.1 2.3 0.4 1.2 0.6 1.6 1.1 0.7 1 0.9 1.6 0.3 1.3 0.3 2.1v0.7zm-2.9-0.9c0-0.8-0.1-1.5-0.5-2s-0.9-0.7-1.7-0.7c-0.4 0-0.7 0.1-1 0.2s-0.5 0.3-0.7 0.6c-0.2 0.2-0.3 0.5-0.4 0.8s-0.2 0.7-0.2 1h4.5z"/>
	<path class="st1" d="m6.1 10.5s5.5-10.3 20.1-8.4c-4.9-2.8-15.3-2.3-20.6 4.6 0 1.4 0.5 3.8 0.5 3.8z"/>
	<path class="st1" d="m26.4 5.1s10.3 5.5 8.3 20.1c2.8-4.9 2.4-15.3-4.5-20.6-1.4 0-3.8 0.5-3.8 0.5z"/>
	<path class="st1" d="m31.7 25.4s-5.5 10.2-20.1 8.3c4.9 2.8 15.3 2.5 20.6-4.5 0-1.3-0.5-3.8-0.5-3.8z"/>
	<path class="st1" d="m11.5 30.7s-10.2-5.5-8.3-20.1c-2.8 4.9-2.5 15.3 4.4 20.6 1.4 0 3.9-0.5 3.9-0.5z"/>
	<path class="st0" d="m18.9 8.1c-5.4 0-9.8 4.4-9.8 9.8s4.4 9.8 9.8 9.8 9.8-4.4 9.8-9.8c0.1-5.4-4.3-9.8-9.8-9.8zm0 14.8c-2.8 0-5-2.2-5-5s2.2-5 5-5 5 2.2 5 5-2.2 5-5 5z"/>
		<path class="st1" d="m55.3 26.3c0 0.3 0 0.7-0.1 1-0.1 0.4-0.2 0.7-0.4 1s-0.4 0.7-0.6 1c-0.3 0.3-0.6 0.6-0.9 0.8-0.4 0.2-0.8 0.4-1.2 0.5-0.5 0.1-1 0.2-1.6 0.2h-1.6l-0.8 4.3s0 0.1-0.1 0.1c0 0-0.1 0.1-0.2 0.1s-0.2 0-0.3 0.1h-0.4-0.4c-0.1 0-0.2 0-0.2-0.1-0.1 0-0.1-0.1-0.1-0.1v-0.1l2.2-10.9c0-0.2 0.1-0.4 0.3-0.5s0.3-0.2 0.5-0.2h2.3 0.8c0.2 0 0.5 0.1 0.7 0.1 0.3 0.1 0.6 0.2 0.9 0.3 0.3 0.2 0.5 0.3 0.7 0.6 0.2 0.2 0.3 0.5 0.4 0.8 0 0.3 0.1 0.6 0.1 1zm-1.7 0.1c0-0.4-0.1-0.7-0.3-1s-0.5-0.5-0.9-0.6c-0.1 0-0.3-0.1-0.5-0.1h-0.6-1.5l-0.8 4.8h1.5c0.4 0 0.8 0 1.1-0.1s0.6-0.2 0.8-0.4 0.4-0.3 0.6-0.6 0.3-0.4 0.4-0.7c0.1-0.2 0.2-0.5 0.2-0.7v-0.6z"/>
		<path class="st1" d="m62.3 35.1c0 0.1-0.1 0.2-0.2 0.2s-0.3 0.1-0.5 0.1h-0.3c-0.1 0-0.1 0-0.2-0.1 0 0-0.1 0-0.1-0.1v-0.1l0.3-1.6c-0.1 0.2-0.2 0.4-0.4 0.6s-0.5 0.4-0.7 0.6c-0.3 0.2-0.6 0.4-0.9 0.5s-0.7 0.2-1.1 0.2c-0.5 0-0.9-0.1-1.2-0.3s-0.6-0.4-0.8-0.7-0.3-0.6-0.4-0.9c-0.1-0.4-0.1-0.7-0.1-1.1 0-0.3 0-0.7 0.1-1.2 0.1-0.4 0.2-0.9 0.3-1.3 0.1-0.5 0.3-0.9 0.6-1.3 0.2-0.4 0.5-0.8 0.8-1.1s0.7-0.6 1.1-0.8 0.9-0.3 1.5-0.3c0.5 0 1 0.1 1.4 0.3s0.7 0.5 1 0.9l0.2-0.8c0-0.1 0.1-0.2 0.2-0.2s0.3-0.1 0.5-0.1h0.3c0.1 0 0.1 0 0.2 0.1l0.1 0.1v0.1l-1.7 8.3zm-0.3-6.1c-0.3-0.4-0.6-0.7-0.9-0.9s-0.7-0.3-1.1-0.3c-0.3 0-0.6 0.1-0.9 0.2-0.3 0.2-0.5 0.4-0.7 0.6-0.2 0.3-0.4 0.5-0.5 0.9-0.1 0.3-0.3 0.7-0.4 1s-0.2 0.7-0.2 1-0.1 0.6-0.1 0.9c0 0.2 0 0.4 0.1 0.6 0 0.2 0.1 0.4 0.2 0.6s0.2 0.3 0.4 0.4 0.4 0.2 0.6 0.2c0.3 0 0.7-0.1 1-0.3s0.7-0.4 0.9-0.8c0.3-0.3 0.6-0.7 0.8-1.2 0.2-0.4 0.4-0.9 0.5-1.5l0.3-1.4z"/>
		<path class="st1" d="m71.4 26.9v0.1 0.2c0 0.1 0 0.2-0.1 0.3 0 0.1-0.1 0.2-0.1 0.3s-0.1 0.2-0.1 0.2c0 0.1-0.1 0.1-0.1 0.1h-0.2c-0.1 0-0.1 0-0.2-0.1-0.1 0-0.2-0.1-0.2-0.1h-0.3c-0.2 0-0.4 0.1-0.7 0.3s-0.5 0.4-0.8 0.7-0.6 0.7-0.8 1.1-0.4 0.9-0.5 1.4l-0.7 3.7s0 0.1-0.1 0.1l-0.1 0.1c-0.1 0-0.1 0-0.2 0.1h-0.4-0.4c-0.1 0-0.2 0-0.2-0.1-0.1 0-0.1-0.1-0.1-0.1v-0.1l1.6-8.2s0-0.1 0.1-0.1l0.1-0.1c0.1 0 0.1 0 0.2-0.1h0.3 0.3c0.1 0 0.1 0 0.2 0.1l0.1 0.1v0.1l-0.3 1.5c0.1-0.2 0.3-0.5 0.5-0.7s0.4-0.4 0.6-0.6 0.5-0.3 0.7-0.4 0.5-0.2 0.7-0.2h0.3c0.1 0 0.2 0 0.3 0.1 0.1 0 0.2 0 0.2 0.1 0.1 0 0.1 0.1 0.2 0.1 0.2-0.1 0.2 0 0.2 0.1z"/>
		<path class="st1" d="m77.4 27v0.2 0.2c0 0.1 0 0.1-0.1 0.2 0 0.1-0.1 0.1-0.1 0.2s-0.1 0.1-0.1 0.1h-0.1-2.1l-0.9 4.6c0 0.1 0 0.3-0.1 0.4v0.4c0 0.3 0.1 0.5 0.2 0.7 0.1 0.1 0.3 0.2 0.6 0.2h0.4c0.1 0 0.2-0.1 0.3-0.1s0.2-0.1 0.2-0.1h0.2s0.1 0 0.1 0.1v0.2 0.3c0 0.1 0 0.2-0.1 0.3 0 0.1-0.1 0.2-0.1 0.2 0 0.1-0.1 0.1-0.1 0.2 0 0-0.1 0.1-0.2 0.1s-0.2 0.1-0.3 0.1-0.3 0.1-0.4 0.1h-0.4c-0.3 0-0.6 0-0.9-0.1-0.2-0.1-0.5-0.2-0.6-0.3-0.2-0.2-0.3-0.3-0.4-0.6-0.1-0.2-0.1-0.5-0.1-0.8v-0.2-0.3-0.3c0-0.1 0-0.2 0.1-0.3l0.9-4.6h-1.1c-0.1 0-0.1 0-0.2-0.1 0 0-0.1-0.1-0.1-0.2v-0.3c0-0.1 0-0.2 0.1-0.3 0-0.1 0.1-0.2 0.1-0.2 0.1-0.1 0.1-0.1 0.2-0.1h1.2l0.4-2s0-0.1 0.1-0.1l0.1-0.1c0.1 0 0.1 0 0.2-0.1h0.4 0.4c0.1 0 0.2 0 0.2 0.1 0.1 0 0.1 0.1 0.1 0.1v0.1l-0.4 2h2.1c0.1 0 0.2 0 0.2 0.1 0.1-0.2 0.1-0.1 0.1 0z"/>
		<path class="st1" d="m85.8 28.7v0.6c0 0.2-0.1 0.4-0.1 0.6l-1 5.1s0 0.1-0.1 0.1l-0.1 0.1c-0.1 0-0.1 0-0.2 0.1h-0.4-0.4c-0.1 0-0.2 0-0.2-0.1-0.1 0-0.1-0.1-0.1-0.1v-0.1l1-5.1c0-0.2 0.1-0.4 0.1-0.5v-0.5c0-0.4-0.1-0.7-0.2-0.9-0.2-0.2-0.4-0.3-0.8-0.3-0.3 0-0.7 0.1-1 0.3s-0.7 0.4-0.9 0.8c-0.3 0.3-0.5 0.7-0.8 1.2-0.2 0.4-0.4 0.9-0.5 1.5l-0.7 3.7s0 0.1-0.1 0.1l-0.1 0.1c-0.1 0-0.1 0-0.2 0.1h-0.4-0.4c-0.1 0-0.2 0-0.2-0.1-0.1 0-0.1-0.1-0.1-0.1v-0.1l1.7-8.2s0-0.1 0.1-0.1l0.1-0.1c0.1 0 0.1 0 0.2-0.1h0.3 0.3c0.1 0 0.1 0 0.2 0.1l0.1 0.1v0.1l-0.3 1.6c0.1-0.2 0.2-0.4 0.4-0.7 0.2-0.2 0.5-0.4 0.7-0.6 0.3-0.2 0.6-0.4 0.9-0.5s0.7-0.2 1.1-0.2 0.7 0.1 1 0.2 0.5 0.3 0.7 0.5 0.3 0.4 0.4 0.7v0.7z"/>
		<path class="st1" d="m95.2 28.5c0 0.4-0.1 0.8-0.3 1.1s-0.5 0.6-0.9 0.9c-0.4 0.2-0.9 0.4-1.6 0.5-0.6 0.1-1.4 0.2-2.3 0.2h-1c0 0.2-0.1 0.4-0.1 0.6v0.5c0 0.6 0.2 1.1 0.5 1.4s0.8 0.5 1.5 0.5c0.4 0 0.7 0 1-0.1s0.6-0.1 0.8-0.2 0.4-0.1 0.6-0.2c0.1-0.1 0.2-0.1 0.3-0.1s0.1 0 0.1 0.1v0.2 0.2c0 0.1 0 0.2-0.1 0.3 0 0.1-0.1 0.2-0.1 0.3s-0.1 0.1-0.1 0.2c-0.1 0.1-0.2 0.1-0.4 0.2s-0.4 0.1-0.7 0.2-0.5 0.1-0.8 0.1-0.6 0.1-0.9 0.1c-0.5 0-1-0.1-1.4-0.2s-0.7-0.3-1-0.6-0.5-0.6-0.6-0.9c-0.1-0.4-0.2-0.8-0.2-1.3 0-0.4 0-0.8 0.1-1.3s0.2-0.9 0.4-1.3 0.4-0.9 0.6-1.3c0.3-0.4 0.6-0.8 0.9-1.1 0.4-0.3 0.8-0.6 1.3-0.7 0.5-0.2 1-0.3 1.6-0.3 0.5 0 0.9 0.1 1.3 0.2s0.6 0.3 0.9 0.5c0.2 0.2 0.4 0.4 0.5 0.7 0.1 0.2 0.1 0.4 0.1 0.6zm-1.5 0.2c0-0.3-0.1-0.6-0.4-0.8-0.2-0.2-0.6-0.3-1-0.3s-0.7 0.1-1 0.2-0.6 0.3-0.8 0.6c-0.2 0.2-0.4 0.5-0.6 0.8s-0.3 0.6-0.4 1h0.9c0.6 0 1.2 0 1.6-0.1s0.8-0.2 1-0.3c0.3-0.1 0.4-0.3 0.5-0.5s0.2-0.4 0.2-0.6z"/>
		<path class="st1" d="m102.6 26.9v0.1 0.2c0 0.1 0 0.2-0.1 0.3 0 0.1-0.1 0.2-0.1 0.3s-0.1 0.2-0.1 0.2c0 0.1-0.1 0.1-0.1 0.1s-0.1 0-0.2 0-0.1 0-0.2-0.1c-0.1 0-0.2-0.1-0.2-0.1h-0.3c-0.2 0-0.4 0.1-0.7 0.3s-0.5 0.4-0.8 0.7-0.5 0.7-0.7 1.1-0.4 0.9-0.5 1.4l-0.7 3.7s0 0.1-0.1 0.1l-0.1 0.1c-0.1 0-0.1 0-0.2 0.1h-0.4-0.4c-0.1 0-0.2 0-0.2-0.1-0.1 0-0.1-0.1-0.1-0.1v-0.1l1.6-8.2s0-0.1 0.1-0.1l0.1-0.1c0.1 0 0.1 0 0.2-0.1h0.3 0.3c0.1 0 0.1 0 0.2 0.1l0.1 0.1v0.1l-0.3 1.4c0.1-0.2 0.3-0.5 0.5-0.7l0.6-0.6c0.2-0.2 0.5-0.3 0.7-0.4s0.5-0.2 0.7-0.2h0.3c0.1 0 0.2 0 0.3 0.1 0.1 0 0.2 0 0.2 0.1 0.1 0 0.1 0.1 0.2 0.1s0.1 0.1 0.1 0.2z"/>
		<path class="st1" d="m108.9 27.3v0.2c0 0.1 0 0.2-0.1 0.3s-0.1 0.2-0.1 0.2c0 0.1-0.1 0.1-0.2 0.1s-0.2 0-0.3-0.1-0.2-0.1-0.4-0.2c-0.1-0.1-0.3-0.1-0.5-0.2s-0.4-0.1-0.7-0.1-0.5 0-0.7 0.1-0.4 0.2-0.5 0.3-0.2 0.3-0.3 0.4c-0.1 0.2-0.1 0.3-0.1 0.5s0.1 0.4 0.2 0.6c0.2 0.2 0.4 0.3 0.6 0.4s0.5 0.3 0.8 0.4 0.5 0.3 0.8 0.5l0.6 0.6c0.2 0.3 0.2 0.6 0.2 1s-0.1 0.8-0.3 1.2-0.4 0.7-0.7 0.9c-0.3 0.3-0.7 0.5-1.1 0.6s-0.9 0.2-1.5 0.2c-0.3 0-0.6 0-0.8-0.1-0.3 0-0.5-0.1-0.7-0.2s-0.4-0.1-0.5-0.2-0.3-0.2-0.3-0.2-0.1-0.1-0.1-0.2v-0.2-0.2-0.2c0-0.1 0-0.1 0.1-0.2 0-0.1 0-0.1 0.1-0.2 0-0.1 0.1-0.1 0.1-0.1l0.1-0.1c0.1 0 0.2 0 0.3 0.1s0.2 0.2 0.4 0.3l0.6 0.3c0.2 0.1 0.6 0.1 0.9 0.1s0.6 0 0.9-0.1l0.6-0.3c0.2-0.1 0.3-0.3 0.4-0.5s0.1-0.4 0.1-0.6c0-0.3-0.1-0.5-0.2-0.6-0.2-0.2-0.4-0.3-0.6-0.4s-0.5-0.3-0.8-0.4-0.5-0.3-0.8-0.5l-0.6-0.6c-0.2-0.3-0.2-0.6-0.2-1s0.1-0.8 0.2-1.1c0.2-0.3 0.4-0.6 0.7-0.9s0.6-0.4 1-0.6c0.4-0.1 0.9-0.2 1.3-0.2 0.2 0 0.5 0 0.7 0.1 0.2 0 0.4 0.1 0.6 0.1 0.2 0.1 0.3 0.1 0.5 0.2 0.1 0.1 0.2 0.1 0.3 0.2v0.6z"/>
</svg>
